<?xml version="1.0" encoding="utf-8"?>
<!-- Generator: Adobe Illustrator 27.8.0, SVG Export Plug-In . SVG Version: 6.00 Build 0)  -->
<svg version="1.1" xmlns="http://www.w3.org/2000/svg" xmlns:xlink="http://www.w3.org/1999/xlink" x="0px" y="0px"
	 viewBox="0 0 92 92" style="enable-background:new 0 0 92 92;" xml:space="preserve">
<style type="text/css">
	.st0{display:none;}
	.st1{display:inline;}
	.st2{display:inline;fill:none;stroke:#000000;stroke-width:17;stroke-miterlimit:10;}
	.st3{display:inline;fill:none;stroke:#000000;stroke-width:14;stroke-miterlimit:10;}
	.st4{display:inline;fill:none;stroke:#000000;stroke-width:10;stroke-miterlimit:10;}
	.st5{fill:none;stroke:#000000;stroke-width:14;stroke-miterlimit:10;}
	.st6{fill:none;stroke:#101010;stroke-width:20;stroke-linecap:round;stroke-linejoin:round;stroke-miterlimit:10;}
	.st7{fill:none;stroke:#101010;stroke-width:10;stroke-linecap:round;stroke-linejoin:round;stroke-miterlimit:10;}
	.st8{display:inline;fill:none;stroke:#101010;stroke-width:10;stroke-miterlimit:10;}
	.st9{display:inline;stroke:#000000;stroke-miterlimit:10;}
	.st10{fill:#FFFFFF;stroke:#0B0B0B;stroke-width:72;stroke-miterlimit:10;}
	.st11{fill:#0B0B0B;}
	.st12{fill:#2B2B2B;}
	.st13{fill:#8B5E3C;}
	.st14{fill:#333333;}
	.st15{fill:#212121;}
	.st16{fill:#6E6E6E;}
	.st17{fill:none;stroke:#6E6E6E;stroke-width:300;stroke-miterlimit:10;}
	.st18{fill:#EE396E;}
	.st19{fill:#EE396E;stroke:#CA59A1;stroke-width:60;stroke-miterlimit:10;}
	.st20{fill:#FCEE2F;}
	.st21{fill:#9E52A0;}
	.st22{fill:#FFFFFF;}
</style>
<g id="로고_두꺼운선" class="st0">
</g>
<g id="로고_중간선__x28_파이널_x29_" class="st0">
</g>
<g id="로고_얇은선" class="st0">
</g>
<g id="logo2" class="st0">
</g>
<g id="logo3" class="st0">
</g>
<g id="Layer_5" class="st0">
</g>
<g id="Layer_3" class="st0">
</g>
<g id="Layer_4" class="st0">
</g>
<g id="Layer_6" class="st0">
</g>
<g id="Layer_8" class="st0">
</g>
<g id="Logo_x5F_Final">
</g>
<g id="Layer_12">
</g>
<g id="Layer_14">
	<g>
		<path class="st22" d="M32.749,82.573l29.063-29.063c1.879-1.879,4.925-1.879,6.804,0l7.152,7.152
			c3.031,3.031,8.213,0.884,8.213-3.402v-44.43c0-2.657-2.154-4.811-4.811-4.811H34.74c-4.286,0-6.433,5.182-3.402,8.213
			l7.152,7.152c1.879,1.879,1.879,4.925,0,6.804L9.427,59.25c-1.879,1.879-1.879,4.925,0,6.804l16.518,16.518
			C27.824,84.451,30.871,84.451,32.749,82.573z"/>
		<path class="st14" d="M79.171,8.018c2.657,0,4.811,2.154,4.811,4.811v44.43c0,2.9-2.372,4.821-4.846,4.821
			c-1.182,0-2.387-0.439-3.367-1.419l-7.152-7.152c-0.939-0.939-2.171-1.409-3.402-1.409c-1.231,0-2.462,0.47-3.402,1.409
			L32.749,82.573c-0.939,0.939-2.171,1.409-3.402,1.409c-1.231,0-2.462-0.47-3.402-1.409L9.427,66.054
			c-1.879-1.879-1.879-4.925,0-6.804l29.063-29.063c1.879-1.879,1.879-4.925,0-6.804l-7.152-7.152
			c-3.031-3.031-0.884-8.213,3.402-8.213H79.171 M79.171,0H34.74c-2.676,0-5.23,0.803-7.385,2.321
			c-1.985,1.399-3.53,3.335-4.468,5.599c-0.938,2.264-1.214,4.725-0.8,7.118c0.45,2.597,1.688,4.97,3.581,6.863l4.884,4.884
			L3.758,53.581c-1.222,1.222-2.17,2.651-2.818,4.248C0.316,59.367,0,60.99,0,62.652c0,1.663,0.316,3.285,0.94,4.824
			c0.647,1.597,1.595,3.026,2.818,4.248l16.518,16.518c1.222,1.222,2.651,2.17,4.248,2.818c1.538,0.624,3.161,0.94,4.824,0.94
			s3.285-0.316,4.824-0.94c1.597-0.647,3.026-1.595,4.248-2.818l26.795-26.795l4.884,4.884c2.429,2.429,5.639,3.767,9.037,3.767
			c1.628,0,3.225-0.305,4.748-0.907c1.517-0.6,2.889-1.466,4.075-2.574c1.257-1.174,2.247-2.562,2.941-4.127
			C91.63,60.848,92,59.088,92,57.26v-44.43c0-1.728-0.34-3.409-1.011-4.996c-0.647-1.529-1.571-2.9-2.746-4.075
			c-1.176-1.176-2.547-2.1-4.075-2.746C82.58,0.34,80.899,0,79.171,0L79.171,0z"/>
	</g>
</g>
<g id="따음표">
</g>
</svg>
